# xmcd
#
# Track frame offsets:
#	150
#	12232
#	23780
#	38496
#	47722
#	58139
#	70463
#	91013
#	107052
#	120511
#	138610
#	149805
#	160461
#	170329
#
# Disc length: 2416 seconds
#
# Revision: 1
# Processed by: cddbd v1.4b41PL2 Copyright (c) Steve Scherf et al.
# Submitted via: audiograbber 1.80
#
DISCID=c3096e0e
DTITLE=The Rimrock Ramblers - Way Out West
DYEAR=1900
DGENRE=
TTITLE0=i'm an old cowhand
TTITLE1=happy trails
TTITLE2=i ride an old paint
TTITLE3=jingle, jangle, jingle
TTITLE4=don't fence me in
TTITLE5=get along little doggies
TTITLE6=south of the border (down mexico way)
TTITLE7=deep in the heart of texas
TTITLE8=cattle call
TTITLE9=take me back to my boots and saddle
TTITLE10=you are my sunshine
TTITLE11=some day (you'll want me to want you)
TTITLE12=the yellow rose of texas
TTITLE13=there's a new moon over my shoulder
EXTD=
EXTT0=
EXTT1=
EXTT2=
EXTT3=
EXTT4=
EXTT5=
EXTT6=
EXTT7=
EXTT8=
EXTT9=
EXTT10=
EXTT11=
EXTT12=
EXTT13=
PLAYORDER=
